# xmcd
#
# Track frame offsets:
#	150
#	16255
#	29862
#	45993
#	64095
#	79685
#	96509
#	110144
#	124860
#	142223
#	159092
#	175328
#	188169
#	205050
#	222158
#	238155
#	255091
#
# Disc length: 3643 seconds
#
# Revision: 1
# Processed by: cddbd v1.5.2PL0 Copyright (c) Steve Scherf et al.
# Submitted via: audiograbber 1.83.01
#
DISCID=ef0e3911
DTITLE=Randy Houser - Fired Up
DYEAR=2016
DGENRE=Country
TTITLE0=Back
TTITLE1=We Went
TTITLE2=Chasing Down a Good Time
TTITLE3=Senior Year
TTITLE4=Mine Tonight
TTITLE5=Lucky Me
TTITLE6=Song Number 7
TTITLE7=Before Midnight
TTITLE8=True
TTITLE9=Yesterday's Whiskey
TTITLE10=Fired Up
TTITLE11=Little Bit Older
TTITLE12=Gotta Get You Home
TTITLE13=Hot Beer and Cold Women
TTITLE14=Same Ole Saturday Night
TTITLE15=One Way (Bonus Track)
TTITLE16=Whiskeysippi River (Bonus Track)
EXTD=
EXTT0=
EXTT1=
EXTT2=
EXTT3=
EXTT4=
EXTT5=
EXTT6=
EXTT7=
EXTT8=
EXTT9=
EXTT10=
EXTT11=
EXTT12=
EXTT13=
EXTT14=
EXTT15=
EXTT16=
PLAYORDER=
